# xmcd
#
# Track frame offsets: 
#        150
#        14196
#        25622
#        38733
#        51534
#        62643
#        77576
#        90126
#        100316
#        111614
#        123044
#        134523
#        145730
#        155561
#        166332
#        176178
#
# Disc length: 2501 seconds
#
# Revision: 0
# Processed by: cddbd v1.5.2PL0 Copyright (c) Steve Scherf et al.
# Submitted via: ExactAudioCopy v0.99pb4
#
DISCID=d709c310
DTITLE=Etta James - Good Rockin' Daddy
DYEAR=2009
DGENRE=Blues
TTITLE0=The Wallflower
TTITLE1=Hold Me, Squeeze Me
TTITLE2=Hey Henry
TTITLE3=Be Mine
TTITLE4=Good Rockin' Daddy
TTITLE5=Crazy Feeling
TTITLE6=W-O-M-A-N
TTITLE7=That's All
TTITLE8=Number One
TTITLE9=I'm A Fool
TTITLE10=Shortnin' Bread Rock
TTITLE11=Tears Of Joy
TTITLE12=Tough Lover
TTITLE13=What Fools We Mortals Be
TTITLE14=Good Lookin'
TTITLE15=Then I'll Care
EXTD=
EXTT0=
EXTT1=
EXTT2=
EXTT3=
EXTT4=
EXTT5=
EXTT6=
EXTT7=
EXTT8=
EXTT9=
EXTT10=
EXTT11=
EXTT12=
EXTT13=
EXTT14=
EXTT15=
PLAYORDER=
